PathFileType	4	(X/Y/Z)	TVC_41_BWA_04_walk_RCNL2025.trc
DataRate	CameraRate	NumFrames	NumMarkers	Units	OrigDataRate	OrigDataStartFrame	OrigNumFrames
100	100	12	27	mm	100	208	553
Frame#	Time	R_Shoulder			L_Shoulder			C7			J_Notch			R_Elbow			L_Elbow			R_Wrist			L_Wrist			R_Asis			L_Asis			R_Psis			L_Psis			Sacral			Thoracic			Sternum			R_Thigh_Lateral			R_Knee_Lateral			R_Shank_Lateral			R_Ankle_Lateral			R_Heel			R_Toe			L_Thigh_Lateral			L_Knee_Lateral			L_Shank_Lateral			L_Ankle_Lateral			L_Heel			L_Toe		
		X1	Y1	Z1	X2	Y2	Z2	X3	Y3	Z3	X4	Y4	Z4	X5	Y5	Z5	X6	Y6	Z6	X7	Y7	Z7	X8	Y8	Z8	X9	Y9	Z9	X10	Y10	Z10	X11	Y11	Z11	X12	Y12	Z12	X13	Y13	Z13	X14	Y14	Z14	X15	Y15	Z15	X16	Y16	Z16	X17	Y17	Z17	X18	Y18	Z18	X19	Y19	Z19	X20	Y20	Z20	X21	Y21	Z21	X22	Y22	Z22	X23	Y23	Z23	X24	Y24	Z24	X25	Y25	Z25	X26	Y26	Z26	X27	Y27	Z27
208	2.07000000	-526.395752	1227.849121	406.109131	-473.010712	1230.998413	73.191772	-542.473267	1297.502808	233.287415	-436.544220	1175.272095	255.831512	-667.924927	965.166016	421.537659	-548.778625	946.101074	8.946941	-489.959915	882.157867	429.389236	-463.471939	756.174530	-1.663530	-551.499573	843.963501	363.837402	-515.819397	818.989685	127.465820	-704.125916	889.400208	265.250824	-692.112061	867.503601	178.705551	-698.118988	878.451904	221.978188	-631.854065	1011.940002	214.686508	-433.367676	991.147461	247.536224	-627.737366	633.084412	445.434448	-632.274048	403.549408	350.524048	-665.886169	274.549713	411.416016	-670.142334	68.218437	329.665222	-722.573242	45.953201	282.377197	-559.863586	41.899281	327.037323	-542.905396	571.627808	14.294327	-428.337402	401.247528	93.599731	-485.543518	282.912842	28.336491	-572.347656	91.438850	85.689331	-622.813843	77.837685	123.716202	-459.748108	51.298733	104.139496
209	2.08000000	-524.343506	1228.122925	404.277222	-468.792389	1230.417358	71.733398	-539.131042	1297.490601	231.214920	-433.848694	1175.057129	254.686096	-666.632874	965.744385	419.197235	-544.358765	945.391968	7.422859	-489.346680	882.247955	428.255951	-459.683990	755.161407	-2.339591	-550.330139	844.273132	362.749420	-513.137573	818.711304	126.621819	-702.278076	889.606689	263.107788	-689.820862	867.612610	176.545120	-696.049469	878.609650	219.826454	-629.629944	1011.991394	212.528381	-431.189972	990.865540	246.775864	-627.123718	633.403320	444.304382	-631.676819	403.760803	349.733795	-665.742371	274.893768	410.727081	-670.107483	68.441826	329.311340	-722.622742	46.192043	282.040497	-559.834656	41.914120	327.088989	-540.186462	571.069092	13.941420	-424.574249	401.821320	93.672722	-479.067383	282.135406	28.083221	-560.277710	86.842346	85.164879	-610.596375	71.736298	122.967010	-445.618622	49.900944	104.076080
210	2.09000000	-522.364990	1228.483765	402.341614	-464.586761	1229.930420	70.191437	-535.826538	1297.562134	229.040314	-431.185364	1174.930176	253.462906	-665.381592	966.412415	416.718109	-539.899414	944.772827	5.812935	-488.819031	882.496490	427.037460	-455.844803	754.239594	-3.088817	-549.135864	844.673828	361.574249	-510.358734	818.516968	125.711624	-700.367920	889.849121	260.850922	-687.429688	867.779236	174.264816	-693.898804	878.814178	217.557869	-627.330444	1012.101318	210.251724	-429.003998	990.678345	245.941299	-626.444946	633.784668	443.048889	-631.006348	404.039032	348.867828	-665.578003	275.318542	409.935547	-670.033691	68.731415	328.891907	-722.578186	46.496380	281.594574	-559.782654	41.933052	327.136353	-537.306030	570.601196	13.525671	-421.184692	402.315765	93.726372	-473.049469	281.324371	27.813839	-549.186401	82.595551	84.615631	-599.374084	66.215965	122.160843	-432.763153	48.479435	104.123619
211	2.10000000	-520.459534	1228.931152	400.309448	-460.399445	1229.543579	68.573036	-532.563538	1297.719360	226.772888	-428.554932	1174.893311	252.166473	-664.166626	967.168030	414.107635	-535.404724	944.251953	4.121606	-488.366516	882.904419	425.738113	-451.951675	753.420288	-3.910735	-547.914001	845.164673	360.311371	-507.484100	818.410828	124.735283	-698.392944	890.128601	258.483826	-684.937134	868.005554	171.868988	-691.665039	879.067078	215.176407	-624.951050	1012.274719	207.864380	-426.808868	990.588013	245.034256	-625.701599	634.231995	441.667145	-630.257202	404.386017	347.926361	-665.390503	275.827057	409.039856	-669.917542	69.089928	328.404510	-722.431030	46.870644	281.033447	-559.705994	41.956486	327.178070	-534.262512	570.239075	13.035895	-418.162720	402.732056	93.751450	-467.502228	280.488892	27.524031	-539.148560	78.743759	84.047485	-589.227844	61.321056	121.313499	-421.257538	47.066364	104.261101
212	2.11000000	-518.626099	1229.463257	398.188171	-456.236237	1229.262207	66.885529	-529.345581	1297.963867	224.422348	-425.958191	1174.947876	250.801437	-662.983093	968.008301	411.373871	-530.879272	943.836548	2.353377	-487.977417	883.471283	424.362335	-448.002411	752.713867	-4.804859	-546.661865	845.744202	358.960632	-504.515686	818.396362	123.692955	-696.351196	890.445557	256.010712	-682.343018	868.293030	169.362732	-689.347107	879.369293	212.686722	-622.489136	1012.516602	205.374527	-424.603912	990.596252	244.056549	-624.895020	634.748657	440.159760	-629.424011	404.803223	346.910492	-665.176758	276.421661	408.039642	-669.755920	69.519737	327.847443	-722.174072	47.319298	280.352844	-559.603088	41.984859	327.212738	-531.062073	569.995422	12.461982	-415.500336	403.072693	93.739212	-462.433655	279.638214	27.209900	-530.214233	75.318275	83.466660	-580.211975	57.074738	120.440575	-411.144958	45.691036	104.466766
213	2.12000000	-516.863098	1230.077881	395.985657	-452.103058	1229.090942	65.136353	-526.176208	1298.296509	221.998642	-423.395752	1175.094604	249.372559	-661.825867	968.929321	408.525269	-526.327942	943.533142	0.512782	-487.638962	884.195190	422.914413	-443.995148	752.129822	-5.770687	-545.376892	846.410583	357.522308	-501.456421	818.476074	122.584915	-694.241333	890.800171	253.436401	-679.648193	868.642273	166.751862	-686.944763	879.721222	210.094131	-619.943848	1012.831421	202.790710	-422.388611	990.703918	243.010040	-624.026917	635.337830	438.528625	-628.501648	405.291595	345.821991	-664.933167	277.104156	406.935913	-669.545898	70.022827	327.219940	-721.801575	47.846695	279.550415	-559.472595	42.018623	327.238922	-527.718445	569.880432	11.795127	-413.187439	403.341431	93.681503	-457.847382	278.781403	26.868034	-522.407959	72.336334	82.879395	-572.353333	53.479973	119.556770	-402.436218	44.379120	104.719109
214	2.13000000	-515.168701	1230.772095	393.709930	-448.005920	1229.033325	63.333012	-523.058899	1298.717407	219.511963	-420.868347	1175.333740	247.884628	-660.689575	969.926270	405.570801	-521.755920	943.347290	-1.395650	-487.337616	885.072601	421.398483	-439.928543	751.676941	-6.807697	-544.056763	847.161255	355.997192	-498.310028	818.651855	121.411560	-692.062378	891.192017	250.766403	-676.854980	869.053284	164.042831	-684.458679	880.122650	207.404617	-617.316345	1013.223206	200.121628	-420.162750	990.911377	241.896637	-623.099365	636.002014	436.777130	-627.484802	405.851471	344.663422	-664.655579	277.875488	405.730835	-669.284912	70.600754	326.521912	-721.309387	48.456982	278.625824	-559.313477	42.058250	327.255157	-524.252197	569.901184	11.028030	-411.212280	403.543121	93.570961	-453.742645	277.927216	26.495562	-515.728760	69.801620	82.291756	-565.651550	50.521252	118.675369	-395.110779	43.152081	104.997673
215	2.14000000	-513.540710	1231.541870	391.369232	-443.950775	1229.092407	61.482964	-519.996948	1299.225586	216.972626	-418.376648	1175.664917	246.342484	-659.568848	970.993286	402.519775	-517.168762	943.283630	-3.367431	-487.059265	886.098633	419.818481	-435.801682	751.363037	-7.915338	-542.699280	847.993225	354.386475	-495.081085	818.924500	120.173431	-689.813904	891.620178	248.006775	-673.966675	869.525269	161.242737	-681.890289	880.572723	204.624756	-614.609558	1013.695190	197.376160	-417.926178	991.218201	240.718262	-622.114197	636.743347	434.909851	-626.368591	406.482605	343.438019	-664.339355	278.735840	404.427826	-668.970642	71.254601	325.754150	-720.695190	49.153931	277.580719	-559.124756	42.104210	327.259949	-520.689758	570.061340	10.155058	-409.561462	403.683563	93.401070	-450.114349	277.083954	26.090214	-510.151001	67.705231	81.709427	-560.079773	48.166908	117.807907	-389.119141	42.026833	105.283806
216	2.15000000	-511.976715	1232.383179	388.971924	-439.943665	1229.270142	59.593594	-516.993530	1299.819824	214.390961	-415.921204	1176.087036	244.750946	-658.458191	972.123901	399.381836	-512.572327	943.345642	-5.398145	-486.789490	887.266632	418.178009	-431.614197	751.194824	-9.093028	-541.302307	848.903015	352.691925	-491.774872	819.294067	118.871208	-687.496094	892.083313	245.164169	-670.987732	870.056641	158.359207	-679.241913	881.069977	201.761688	-611.828064	1014.249695	194.563187	-415.679047	991.623230	239.476898	-621.072815	637.563049	432.932800	-625.148193	407.184174	342.149689	-663.979126	279.684509	403.031555	-668.601074	71.984978	324.918091	-719.958435	49.940823	276.418793	-558.906006	42.156986	327.251740	-517.062378	570.361206	9.172350	-408.220215	403.769257	93.166298	-446.953156	276.259338	25.650341	-505.626526	66.027100	81.137573	-555.587097	46.371922	116.963951	-384.385803	41.015579	105.561249
217	2.16000000	-510.473816	1233.290894	386.526398	-435.990479	1229.567383	57.672134	-514.051514	1300.497925	211.777267	-413.502655	1176.598267	243.114792	-657.352112	973.310791	396.166779	-507.972595	943.535828	-7.483467	-486.513885	888.568298	416.480286	-427.366257	751.177887	-10.340134	-539.863831	849.886719	350.915833	-488.397339	819.759888	117.505745	-685.109680	892.579712	242.245712	-667.923523	870.645142	155.400467	-676.516602	881.612427	198.823090	-608.978088	1014.888184	191.691559	-413.421692	992.124756	238.174530	-619.976196	638.461670	430.853210	-623.818970	407.954590	340.802917	-663.569092	280.719971	401.547699	-668.174744	72.791969	324.015930	-719.100403	50.820324	275.145599	-558.657043	42.217064	327.229034	-513.404602	570.797424	8.077899	-407.172516	403.807343	92.862144	-444.245880	275.460266	25.174944	-502.087067	64.737701	80.580795	-552.101562	45.080936	116.151077	-380.813232	40.125862	105.816582
218	2.17000000	-509.028961	1234.259521	384.041077	-432.097076	1229.984375	55.725616	-511.173706	1301.256958	209.141647	-411.121460	1177.196533	241.438766	-656.245422	974.545837	392.884552	-503.375885	943.855469	-9.619186	-486.218262	889.993896	414.728226	-423.058533	751.316772	-11.655973	-538.382019	850.940063	349.060913	-484.955078	820.320251	116.078049	-682.655884	893.107056	239.259018	-664.780579	871.287781	152.375122	-673.718231	882.197418	195.817070	-606.067017	1015.610718	188.770035	-411.154663	992.720459	236.813187	-618.824097	639.438782	428.679382	-622.376526	408.791779	339.402771	-663.102844	281.839722	399.982971	-667.690552	73.675125	323.050568	-718.124207	51.794346	273.768555	-558.377991	42.284924	327.190277	-509.752930	571.363464	6.871574	-406.401245	403.805206	92.485184	-441.975464	274.692841	24.663670	-499.447784	63.800022	80.043045	-549.533630	44.231472	115.375000	-378.286346	39.360790	106.039467
219	2.18000000	-507.638794	1235.282959	381.524292	-428.269135	1230.520264	53.760799	-508.362610	1302.093384	206.494064	-408.778198	1177.878784	239.727478	-655.132812	975.820618	389.545135	-498.788605	944.304810	-11.801223	-485.888947	891.531891	412.924271	-418.692398	751.614746	-13.039792	-536.855042	852.058411	347.130432	-481.455200	820.972717	114.589325	-680.136536	893.662659	236.212097	-661.566101	871.980835	149.292236	-670.851318	882.821747	192.752167	-603.103638	1016.416321	185.807190	-408.878662	993.407166	235.394897	-617.615234	640.492981	426.420746	-620.816833	409.692841	337.954742	-662.573669	283.040314	398.345001	-667.147888	74.633438	322.025360	-717.034485	52.863968	272.296631	-558.069458	42.361038	327.133881	-506.144318	572.049377	5.555110	-405.888458	403.770477	92.033112	-440.121552	273.962219	24.116800	-497.610870	63.171638	79.527657	-547.780701	43.757019	114.639778	-376.677277	38.719410	106.222763
